<svg xmlns="http://www.w3.org/2000/svg" viewBox="0 0 256 256" fill="#000000">
  <path d="M108 186.881L108 121.763L111.75 124.594C113.813 126.152 124.664 134.755 135.864 143.713L156.228 160L206.114 160L256 160L256 206L256 252L182 252L108 252L108 186.881M244 206L244 172L197.931 172L151.863 172L137.181 160.355C129.107 153.95 121.938 148.27 121.25 147.733C120.254 146.954 120 156.225 120 193.378L120 240L182 240L244 240L244 206M49.792 138.657C37.34 135.149 28 122.878 28 110.027C28 94.208 42.195 80 58 80C73.792 80 88 94.208 88 110C88 120.798 80.288 132.773 70.563 137.075C64.784 139.631 55.704 140.323 49.792 138.657M193.792 138.657C177.027 133.933 167.951 115.898 174.086 99.499C178.236 88.407 190.272 80 202 80C217.792 80 232 94.208 232 110C232 120.798 224.288 132.773 214.563 137.075C208.784 139.631 199.704 140.323 193.792 138.657M66.03 125.75C79.153 119.121 79.153 100.879 66.03 94.25C63.58 93.012 59.967 92 58 92C56.033 92 52.42 93.012 49.97 94.25C36.847 100.879 36.847 119.121 49.97 125.75C52.42 126.988 56.033 128 58 128C59.967 128 63.58 126.988 66.03 125.75M210.03 125.75C223.153 119.121 223.153 100.879 210.03 94.25C207.58 93.012 203.967 92 202 92C200.033 92 196.42 93.012 193.97 94.25C180.847 100.879 180.847 119.121 193.97 125.75C196.42 126.988 200.033 128 202 128C203.967 128 207.58 126.988 210.03 125.75M41.795 66.519C26.146 63.959 11.324 56.417 6.959 48.794C4.636 44.737 4.482 43.492 4.171 26.25L3.841 8L58 8L112.159 8L111.829 26.25C111.472 46.044 110.978 48.093 105.241 53.537C100.28 58.246 87.849 63.724 77 65.982C68.089 67.837 51.402 68.091 41.795 66.519M185.795 66.519C170.146 63.959 155.324 56.417 150.959 48.794C148.636 44.737 148.482 43.492 148.171 26.25L147.841 8L202 8L256.159 8L255.829 26.25C255.472 46.044 254.978 48.093 249.241 53.537C244.28 58.246 231.849 63.724 221 65.982C212.089 67.837 195.402 68.091 185.795 66.519M77.48 53.563C86.558 51.047 94.805 47.02 97.542 43.768C99.809 41.074 100 40.035 100 30.423L100 20L58 20L16 20L16 30.423C16 40.016 16.195 41.078 18.442 43.748C21.546 47.438 32.889 52.691 41.694 54.517C50.405 56.323 69.345 55.818 77.48 53.563M221.48 53.563C230.558 51.047 238.805 47.02 241.542 43.768C243.809 41.074 244 40.035 244 30.423L244 20L202 20L160 20L160 30.423C160 40.016 160.195 41.078 162.442 43.748C165.546 47.438 176.889 52.691 185.694 54.517C194.405 56.323 213.345 55.818 221.48 53.563"/>
</svg>