<svg xmlns="http://www.w3.org/2000/svg" viewBox="0 0 256 256" fill="#000000">
  <path d="M208 252H48C32.536 252 20 239.464 20 224V32C20 16.536 32.536 4 48 4H208C223.464 4 236 16.536 236 32V224C236 239.464 223.464 252 208 252zM128 100C94.916 100 68 126.916 68 160C68 162.208 69.788 164 72 164S76 162.208 76 160C76 131.328 99.328 108 128 108S180 131.328 180 160C180 162.208 181.788 164 184 164S188 162.208 188 160C188 126.916 161.084 100 128 100zM208 204H48C36.972 204 28 212.972 28 224S36.972 244 48 244H208C219.028 244 228 235.028 228 224S219.028 204 208 204z"/>
</svg>