<svg xmlns="http://www.w3.org/2000/svg" viewBox="0 0 256 256" fill="#000000">
  <path d="M20 126L20 0L26 0L32 0L32 47.995L32 95.991L135.931 96.245L239.862 96.5L218.4 135.251L196.939 174.002L218.096 212.251C229.733 233.288 239.448 250.838 239.686 251.25C239.924 251.663 190.591 252 130.059 252L20 252L20 126M218.653 238.539C218.345 237.735 210.237 222.882 200.635 205.531L183.177 173.983L200.649 142.415C210.259 125.052 218.367 110.206 218.668 109.423C219.138 108.199 206.158 108 125.607 108L32 108L32 174L32 240L125.607 240C207.294 240 219.143 239.814 218.653 238.539"/>
</svg>