<svg xmlns="http://www.w3.org/2000/svg" viewBox="0 0 256 256" fill="#000000">
  <path d="M24.234 137.25L24.5 22.5L27.311 16.776C30.685 9.905 36.43 4.731 43.708 2.008C48.927 0.055 51.411 0 134 0C216.589 0 219.073 0.055 224.292 2.008C231.57 4.731 237.315 9.905 240.689 16.776C243.316 22.126 243.522 23.464 243.842 37.25L244.183 52L158.092 52L72 52L72 39.212C72 27.936 71.734 25.897 69.75 21.97C63.121 8.847 44.879 8.847 38.25 21.97L36 26.424L36 133.212L36 240L118 240L200 240L200 152L200 64L206 64L212 64L212 158L212 252L117.984 252L23.967 252L24.234 137.25M64 190L64 184L118 184L172 184L172 190L172 196L118 196L64 196L64 190M64 146L64 140L118 140L172 140L172 146L172 152L118 152L64 152L64 146M64 102L64 96L118 96L172 96L172 102L172 108L118 108L64 108L64 102M232 33.468C232 23.166 228.826 17.245 221.5 13.881C217.742 12.155 213.294 12.043 147.903 12.022L78.306 12L80.852 17.145C82.832 21.147 83.492 24.256 83.821 31.145L84.245 40L158.122 40L232 40L232 33.468"/>
</svg>