<svg xmlns="http://www.w3.org/2000/svg" viewBox="0 0 256 256" fill="#000000">
  <path d="M91.556 242.507C88.531 241.43 79.253 232.767 51.704 205.301C14.987 168.694 12.061 165.206 12.028 158C11.983 148.383 9.67 151.016 80.837 79.643C150.084 10.194 152.48 8.037 160.384 8.01C169.011 7.981 169.635 8.487 208.252 46.892C248.477 86.896 248.83 87.346 247.677 97.076C247.348 99.86 246.183 103.569 245.089 105.319C243.995 107.069 213.04 138.499 176.3 175.163C118.965 232.381 108.933 241.98 105.5 242.908C100.233 244.331 96.364 244.22 91.556 242.507M168 234.145L168 228L174.34 228C182.168 228 194.442 224.95 201.325 221.295C209.12 217.155 222.022 203.846 225.845 196C229.505 188.491 231.958 177.999 231.983 169.75L232 164L238.151 164L244.302 164L243.702 173.75C242.545 192.563 236.649 205.532 223.091 219.091C209.503 232.678 196.408 238.637 177.75 239.723L168 240.291L168 234.145M108.255 226.249L113.033 221.543L73.79 182.29L34.546 143.037L30.691 146.768C25.69 151.609 23.718 155.441 24.47 158.861C24.873 160.696 36.324 172.798 59.783 196.179C78.877 215.211 95.175 231.037 96 231.349C99.325 232.606 103.612 230.822 108.255 226.249M165.754 90.254L126.509 51L84.755 92.745L43 134.491L82.246 173.746L121.491 213L163.245 171.255L205 129.509L165.754 90.254M236 94.931C236 91.794 233.23 88.761 200.234 55.766C167.289 22.82 164.202 20 161.081 20C158.107 20 156.302 21.372 146.321 31.22L134.949 42.44L174.225 81.738L213.5 121.036L224.75 109.683C234.652 99.692 236 97.924 236 94.931M16.298 78.25C17.455 59.437 23.351 46.468 36.909 32.909C50.497 19.322 63.592 13.363 82.25 12.277L92 11.709L92 17.855L92 24L85.66 24C77.786 24 65.505 27.065 58.705 30.728C52.171 34.247 41.095 44.619 36.917 51.129C31.774 59.145 28.901 68.317 28.268 78.75L27.706 88L21.702 88L15.698 88L16.298 78.25"/>
</svg>