<svg xmlns="http://www.w3.org/2000/svg" viewBox="0 0 256 256" fill="#000000">
  <path d="M94.45 238.607C72.359 234.379 56.875 226.009 41.86 210.178C14.745 181.589 8.571 140.538 25.967 104.5C35.684 84.372 54.413 67.051 75.77 58.441C78.922 57.171 86.225 55.157 92 53.966C117.409 48.726 144.832 54.993 166.485 70.989L172.245 75.244L205.118 42.382L237.991 9.52L242.235 13.765L246.48 18.009L213.566 50.934L180.653 83.858L184.652 89.179C220.617 137.025 204.338 203.796 150.078 230.984C135.557 238.261 110.546 241.688 94.45 238.607M126.564 226.103C146.843 221.918 166.51 208.744 177.962 191.675C196.102 164.638 196.441 129.349 178.826 101.78C167.298 83.739 147.678 70.254 126.636 65.912C108.038 62.074 91.007 64.356 73.145 73.08C63.568 77.758 61.535 79.265 52.506 88.385C41.161 99.843 34.912 110.261 30.844 124.5C27.594 135.874 27.568 156.041 30.789 167.299C34.882 181.604 42.533 194.365 53.161 204.612C73.107 223.846 99.733 231.641 126.564 226.103"/>
</svg>